<?xml version="1.0"?>
<svg xmlns="http://www.w3.org/2000/svg" xmlns:xlink="http://www.w3.org/1999/xlink" version="1.1" id="Capa_1" x="0px" y="0px" viewBox="0 0 409.496 409.496" style="enable-background:new 0 0 409.496 409.496;" xml:space="preserve" width="512px" height="512px" class=""><g><g>
	<path style="fill:#FFFFFF" d="M318,309.148c20.1,0,36.4,16.3,36.4,36.4s-16.3,36.4-36.4,36.4s-36.4-16.3-36.4-36.4   C281.7,325.448,297.9,309.148,318,309.148z" data-original="#ED664C" class="" data-old_color="#ED664C"/>
	<path style="fill:#FFFFFF" d="M162.6,309.148c20.1,0,36.4,16.3,36.4,36.4s-16.3,36.4-36.4,36.4s-36.4-16.3-36.4-36.4   C126.2,325.448,142.5,309.148,162.6,309.148z" data-original="#ED664C" class="" data-old_color="#ED664C"/>
</g><path d="M318,299.148c-25.6,0-46.4,20.8-46.4,46.4s20.8,46.4,46.4,46.4s46.4-20.8,46.4-46.4  C364.5,319.948,343.6,299.148,318,299.148z M318,371.948c-14.6,0-26.4-11.8-26.4-26.4s11.8-26.4,26.4-26.4s26.4,11.8,26.4,26.4  C344.5,360.148,332.6,371.948,318,371.948z" data-original="#000000" class="active-path" style="fill:#CFDFDA" data-old_color="#000000"/><path d="M399.6,73.548H88.7l-2.6-12.9c-4.8-25-27-43.1-52.8-43.1H10c-5.5,0-10,4.5-10,10s4.5,10,10,10h23.2  c16.5,0,30.1,10.9,33.2,26.8l37.4,187.9c3.7,18.7,20.2,32.3,39.2,32.3h193.8c19,0,35.5-13.8,39.2-32.4l33.3-166.8  c0.6-2.9-0.2-5.9-2.1-8.2C405.4,74.848,402.5,73.548,399.6,73.548z M381.5,122.548h-49.1l3.6-29h51.3L381.5,122.548z M251.8,122.548  v-29h64.1l-3.6,29H251.8z M309.8,142.548l-3.4,27h-54.6v-27H309.8z M231.8,122.548h-60.4l-3.6-29h64V122.548z M231.8,142.548v27  h-54.5l-3.4-27H231.8z M157.2,169.548h-49.3l-5.4-27h51.3L157.2,169.548z M111.8,189.548h47.8l3.3,27h-45.8L111.8,189.548z   M179.8,189.548h52v27h-48.7L179.8,189.548z M231.8,236.548v28H189l-3.4-28H231.8z M251.8,236.548h46.3l-3.4,28h-42.9V236.548z   M251.8,216.548v-27h52.1l-3.3,27H251.8z M324.1,189.548h44l-5.4,27h-41.9L324.1,189.548z M326.6,169.548l3.4-27h47.6l-5.5,27H326.6  z M147.7,93.548l3.6,29H98.5l-5.8-29H147.7z M123.4,248.148l-2.2-11.6h44.3l3.4,28H143C133.5,264.548,125.3,257.448,123.4,248.148z   M336.8,264.548h-22l3.4-28h40.4l-2.3,11.6C354.5,257.448,346.3,264.548,336.8,264.548z" data-original="#000000" class="active-path" style="fill:#CFDFDA" data-old_color="#000000"/><path d="M162.6,299.148c-25.6,0-46.4,20.8-46.4,46.4s20.8,46.4,46.4,46.4s46.4-20.8,46.4-46.4  C209,319.948,188.2,299.148,162.6,299.148z M162.6,371.948c-14.6,0-26.4-11.8-26.4-26.4s11.8-26.4,26.4-26.4  c14.6,0,26.4,11.8,26.4,26.4S177.2,371.948,162.6,371.948z" data-original="#000000" class="active-path" style="fill:#CFDFDA" data-old_color="#000000"/></g> </svg>